<svg xmlns="http://www.w3.org/2000/svg" version="1.1" xmlns:xlink="http://www.w3.org/1999/xlink" xmlns:svgjs="http://svgjs.com/svgjs" width="1440" height="700" preserveAspectRatio="none" viewBox="0 0 1440 700"><g mask="url(&quot;#SvgjsMask1218&quot;)" fill="none"><rect width="1440" height="700" x="0" y="0" fill="#0e2a47"></rect><path d="M-74.14 514.78L-74.14 514.78" stroke="#132e65" stroke-width="1.5"></path><path d="M-74.14 514.78L54.44 523.05" stroke="#132e65" stroke-width="1.5"></path><path d="M-74.14 514.78L-69.36 664.36" stroke="#132e65" stroke-width="1.5"></path><path d="M-74.14 514.78L79.9 651.38" stroke="#132e65" stroke-width="1.5"></path><path d="M-69.36 664.36L-69.36 664.36" stroke="#132e65" stroke-width="1.5"></path><path d="M-69.36 664.36L79.9 651.38" stroke="#132e65" stroke-width="1.5"></path><path d="M-69.36 664.36L-96.4 844.31" stroke="#132e65" stroke-width="1.5"></path><path d="M-69.36 664.36L54.44 523.05" stroke="#132e65" stroke-width="1.5"></path><path d="M-69.36 664.36L68.46 805.36" stroke="#132e65" stroke-width="1.5"></path><path d="M-69.36 664.36L202.65 689.39" stroke="#132e65" stroke-width="1.5"></path><path d="M-96.4 844.31L-96.4 844.31" stroke="#132e65" stroke-width="1.5"></path><path d="M-96.4 844.31L68.46 805.36" stroke="#132e65" stroke-width="1.5"></path><path d="M-96.4 844.31L79.9 651.38" stroke="#132e65" stroke-width="1.5"></path><path d="M54.44 523.05L54.44 523.05" stroke="#132e65" stroke-width="1.5"></path><path d="M54.44 523.05L79.9 651.38" stroke="#132e65" stroke-width="1.5"></path><path d="M54.44 523.05L220.72 534.48" stroke="#132e65" stroke-width="1.5"></path><path d="M79.9 651.38L79.9 651.38" stroke="#132e65" stroke-width="1.5"></path><path d="M79.9 651.38L202.65 689.39" stroke="#132e65" stroke-width="1.5"></path><path d="M68.46 805.36L68.46 805.36" stroke="#132e65" stroke-width="1.5"></path><path d="M68.46 805.36L219.49 787.73" stroke="#132e65" stroke-width="1.5"></path><path d="M68.46 805.36L79.9 651.38" stroke="#132e65" stroke-width="1.5"></path><path d="M220.72 534.48L220.72 534.48" stroke="#132e65" stroke-width="1.5"></path><path d="M220.72 534.48L358.21 552.65" stroke="#132e65" stroke-width="1.5"></path><path d="M220.72 534.48L202.65 689.39" stroke="#132e65" stroke-width="1.5"></path><path d="M220.72 534.48L79.9 651.38" stroke="#132e65" stroke-width="1.5"></path><path d="M220.72 534.48L354.61 671.72" stroke="#132e65" stroke-width="1.5"></path><path d="M202.65 689.39L202.65 689.39" stroke="#132e65" stroke-width="1.5"></path><path d="M202.65 689.39L219.49 787.73" stroke="#132e65" stroke-width="1.5"></path><path d="M202.65 689.39L354.61 671.72" stroke="#132e65" stroke-width="1.5"></path><path d="M202.65 689.39L68.46 805.36" stroke="#132e65" stroke-width="1.5"></path><path d="M219.49 787.73L219.49 787.73" stroke="#132e65" stroke-width="1.5"></path><path d="M219.49 787.73L364.82 789.25" stroke="#132e65" stroke-width="1.5"></path><path d="M392.2 390.27L392.2 390.27" stroke="#132e65" stroke-width="1.5"></path><path d="M392.2 390.27L518.25 410.1" stroke="#132e65" stroke-width="1.5"></path><path d="M392.2 390.27L358.21 552.65" stroke="#132e65" stroke-width="1.5"></path><path d="M358.21 552.65L358.21 552.65" stroke="#132e65" stroke-width="1.5"></path><path d="M358.21 552.65L354.61 671.72" stroke="#132e65" stroke-width="1.5"></path><path d="M358.21 552.65L494.17 543.51" stroke="#132e65" stroke-width="1.5"></path><path d="M358.21 552.65L202.65 689.39" stroke="#132e65" stroke-width="1.5"></path><path d="M354.61 671.72L354.61 671.72" stroke="#132e65" stroke-width="1.5"></path><path d="M354.61 671.72L364.82 789.25" stroke="#132e65" stroke-width="1.5"></path><path d="M354.61 671.72L219.49 787.73" stroke="#132e65" stroke-width="1.5"></path><path d="M354.61 671.72L494.17 543.51" stroke="#132e65" stroke-width="1.5"></path><path d="M364.82 789.25L364.82 789.25" stroke="#132e65" stroke-width="1.5"></path><path d="M364.82 789.25L537.7 830.75" stroke="#132e65" stroke-width="1.5"></path><path d="M518.25 410.1L518.25 410.1" stroke="#132e65" stroke-width="1.5"></path><path d="M518.25 410.1L494.17 543.51" stroke="#132e65" stroke-width="1.5"></path><path d="M494.17 543.51L494.17 543.51" stroke="#132e65" stroke-width="1.5"></path><path d="M552.02 681.92L552.02 681.92" stroke="#132e65" stroke-width="1.5"></path><path d="M552.02 681.92L654.71 687.01" stroke="#132e65" stroke-width="1.5"></path><path d="M552.02 681.92L537.7 830.75" stroke="#132e65" stroke-width="1.5"></path><path d="M537.7 830.75L537.7 830.75" stroke="#132e65" stroke-width="1.5"></path><path d="M537.7 830.75L681.08 841.89" stroke="#132e65" stroke-width="1.5"></path><path d="M537.7 830.75L654.71 687.01" stroke="#132e65" stroke-width="1.5"></path><path d="M689.78 347.1L689.78 347.1" stroke="#132e65" stroke-width="1.5"></path><path d="M689.78 347.1L821.8 408.59" stroke="#132e65" stroke-width="1.5"></path><path d="M689.78 347.1L790.4 491.91" stroke="#132e65" stroke-width="1.5"></path><path d="M689.78 347.1L518.25 410.1" stroke="#132e65" stroke-width="1.5"></path><path d="M689.78 347.1L690.1 541.19" stroke="#132e65" stroke-width="1.5"></path><path d="M689.78 347.1L844 223.78" stroke="#132e65" stroke-width="1.5"></path><path d="M690.1 541.19L690.1 541.19" stroke="#132e65" stroke-width="1.5"></path><path d="M690.1 541.19L790.4 491.91" stroke="#132e65" stroke-width="1.5"></path><path d="M690.1 541.19L654.71 687.01" stroke="#132e65" stroke-width="1.5"></path><path d="M690.1 541.19L821.8 408.59" stroke="#132e65" stroke-width="1.5"></path><path d="M654.71 687.01L654.71 687.01" stroke="#132e65" stroke-width="1.5"></path><path d="M654.71 687.01L681.08 841.89" stroke="#132e65" stroke-width="1.5"></path><path d="M654.71 687.01L813.54 711.1" stroke="#132e65" stroke-width="1.5"></path><path d="M681.08 841.89L681.08 841.89" stroke="#132e65" stroke-width="1.5"></path><path d="M681.08 841.89L798.05 838.42" stroke="#132e65" stroke-width="1.5"></path><path d="M681.08 841.89L813.54 711.1" stroke="#132e65" stroke-width="1.5"></path><path d="M681.08 841.89L552.02 681.92" stroke="#132e65" stroke-width="1.5"></path><path d="M844 223.78L844 223.78" stroke="#132e65" stroke-width="1.5"></path><path d="M844 223.78L970.77 191.66" stroke="#132e65" stroke-width="1.5"></path><path d="M844 223.78L962.33 337.56" stroke="#132e65" stroke-width="1.5"></path><path d="M821.8 408.59L821.8 408.59" stroke="#132e65" stroke-width="1.5"></path><path d="M821.8 408.59L790.4 491.91" stroke="#132e65" stroke-width="1.5"></path><path d="M821.8 408.59L962.33 337.56" stroke="#132e65" stroke-width="1.5"></path><path d="M790.4 491.91L790.4 491.91" stroke="#132e65" stroke-width="1.5"></path><path d="M790.4 491.91L941.76 536.44" stroke="#132e65" stroke-width="1.5"></path><path d="M813.54 711.1L813.54 711.1" stroke="#132e65" stroke-width="1.5"></path><path d="M813.54 711.1L798.05 838.42" stroke="#132e65" stroke-width="1.5"></path><path d="M813.54 711.1L955.58 655.89" stroke="#132e65" stroke-width="1.5"></path><path d="M798.05 838.42L798.05 838.42" stroke="#132e65" stroke-width="1.5"></path><path d="M798.05 838.42L981.68 820.04" stroke="#132e65" stroke-width="1.5"></path><path d="M798.05 838.42L654.71 687.01" stroke="#132e65" stroke-width="1.5"></path><path d="M798.05 838.42L955.58 655.89" stroke="#132e65" stroke-width="1.5"></path><path d="M976.66 -97.14L976.66 -97.14" stroke="#132e65" stroke-width="1.5"></path><path d="M976.66 -97.14L1142.61 -74.62" stroke="#132e65" stroke-width="1.5"></path><path d="M976.66 -97.14L963.22 110.93" stroke="#132e65" stroke-width="1.5"></path><path d="M976.66 -97.14L1120.48 59.88" stroke="#132e65" stroke-width="1.5"></path><path d="M976.66 -97.14L1249.11 -61.97" stroke="#132e65" stroke-width="1.5"></path><path d="M976.66 -97.14L970.77 191.66" stroke="#132e65" stroke-width="1.5"></path><path d="M963.22 110.93L963.22 110.93" stroke="#132e65" stroke-width="1.5"></path><path d="M963.22 110.93L970.77 191.66" stroke="#132e65" stroke-width="1.5"></path><path d="M963.22 110.93L844 223.78" stroke="#132e65" stroke-width="1.5"></path><path d="M963.22 110.93L1120.48 59.88" stroke="#132e65" stroke-width="1.5"></path><path d="M963.22 110.93L962.33 337.56" stroke="#132e65" stroke-width="1.5"></path><path d="M963.22 110.93L1142.61 -74.62" stroke="#132e65" stroke-width="1.5"></path><path d="M970.77 191.66L970.77 191.66" stroke="#132e65" stroke-width="1.5"></path><path d="M970.77 191.66L962.33 337.56" stroke="#132e65" stroke-width="1.5"></path><path d="M970.77 191.66L1120.48 59.88" stroke="#132e65" stroke-width="1.5"></path><path d="M962.33 337.56L962.33 337.56" stroke="#132e65" stroke-width="1.5"></path><path d="M962.33 337.56L1087.99 389.96" stroke="#132e65" stroke-width="1.5"></path><path d="M941.76 536.44L941.76 536.44" stroke="#132e65" stroke-width="1.5"></path><path d="M941.76 536.44L955.58 655.89" stroke="#132e65" stroke-width="1.5"></path><path d="M941.76 536.44L821.8 408.59" stroke="#132e65" stroke-width="1.5"></path><path d="M941.76 536.44L1090.92 647.89" stroke="#132e65" stroke-width="1.5"></path><path d="M955.58 655.89L955.58 655.89" stroke="#132e65" stroke-width="1.5"></path><path d="M955.58 655.89L1090.92 647.89" stroke="#132e65" stroke-width="1.5"></path><path d="M955.58 655.89L981.68 820.04" stroke="#132e65" stroke-width="1.5"></path><path d="M955.58 655.89L1113.02 793.36" stroke="#132e65" stroke-width="1.5"></path><path d="M955.58 655.89L1131.24 521.18" stroke="#132e65" stroke-width="1.5"></path><path d="M981.68 820.04L981.68 820.04" stroke="#132e65" stroke-width="1.5"></path><path d="M981.68 820.04L1113.02 793.36" stroke="#132e65" stroke-width="1.5"></path><path d="M981.68 820.04L813.54 711.1" stroke="#132e65" stroke-width="1.5"></path><path d="M981.68 820.04L1090.92 647.89" stroke="#132e65" stroke-width="1.5"></path><path d="M981.68 820.04L941.76 536.44" stroke="#132e65" stroke-width="1.5"></path><path d="M1142.61 -74.62L1142.61 -74.62" stroke="#132e65" stroke-width="1.5"></path><path d="M1142.61 -74.62L1249.11 -61.97" stroke="#132e65" stroke-width="1.5"></path><path d="M1142.61 -74.62L1120.48 59.88" stroke="#132e65" stroke-width="1.5"></path><path d="M1120.48 59.88L1120.48 59.88" stroke="#132e65" stroke-width="1.5"></path><path d="M1120.48 59.88L1265.48 70.43" stroke="#132e65" stroke-width="1.5"></path><path d="M1120.48 59.88L1249.11 -61.97" stroke="#132e65" stroke-width="1.5"></path><path d="M1120.48 59.88L1245.55 199.63" stroke="#132e65" stroke-width="1.5"></path><path d="M1087.99 389.96L1087.99 389.96" stroke="#132e65" stroke-width="1.5"></path><path d="M1087.99 389.96L1131.24 521.18" stroke="#132e65" stroke-width="1.5"></path><path d="M1087.99 389.96L1288.82 373.89" stroke="#132e65" stroke-width="1.5"></path><path d="M1087.99 389.96L941.76 536.44" stroke="#132e65" stroke-width="1.5"></path><path d="M1131.24 521.18L1131.24 521.18" stroke="#132e65" stroke-width="1.5"></path><path d="M1131.24 521.18L1090.92 647.89" stroke="#132e65" stroke-width="1.5"></path><path d="M1131.24 521.18L1310.51 511.83" stroke="#132e65" stroke-width="1.5"></path><path d="M1131.24 521.18L941.76 536.44" stroke="#132e65" stroke-width="1.5"></path><path d="M1131.24 521.18L1290.74 642.91" stroke="#132e65" stroke-width="1.5"></path><path d="M1090.92 647.89L1090.92 647.89" stroke="#132e65" stroke-width="1.5"></path><path d="M1113.02 793.36L1113.02 793.36" stroke="#132e65" stroke-width="1.5"></path><path d="M1113.02 793.36L1090.92 647.89" stroke="#132e65" stroke-width="1.5"></path><path d="M1113.02 793.36L1301.87 844.15" stroke="#132e65" stroke-width="1.5"></path><path d="M1113.02 793.36L1290.74 642.91" stroke="#132e65" stroke-width="1.5"></path><path d="M1249.11 -61.97L1249.11 -61.97" stroke="#132e65" stroke-width="1.5"></path><path d="M1249.11 -61.97L1265.48 70.43" stroke="#132e65" stroke-width="1.5"></path><path d="M1249.11 -61.97L1457.43 -70.69" stroke="#132e65" stroke-width="1.5"></path><path d="M1249.11 -61.97L1461.7 75.16" stroke="#132e65" stroke-width="1.5"></path><path d="M1249.11 -61.97L1245.55 199.63" stroke="#132e65" stroke-width="1.5"></path><path d="M1265.48 70.43L1265.48 70.43" stroke="#132e65" stroke-width="1.5"></path><path d="M1265.48 70.43L1245.55 199.63" stroke="#132e65" stroke-width="1.5"></path><path d="M1265.48 70.43L1142.61 -74.62" stroke="#132e65" stroke-width="1.5"></path><path d="M1265.48 70.43L1461.7 75.16" stroke="#132e65" stroke-width="1.5"></path><path d="M1245.55 199.63L1245.55 199.63" stroke="#132e65" stroke-width="1.5"></path><path d="M1245.55 199.63L1288.82 373.89" stroke="#132e65" stroke-width="1.5"></path><path d="M1245.55 199.63L1454.24 205.21" stroke="#132e65" stroke-width="1.5"></path><path d="M1245.55 199.63L1087.99 389.96" stroke="#132e65" stroke-width="1.5"></path><path d="M1245.55 199.63L1461.7 75.16" stroke="#132e65" stroke-width="1.5"></path><path d="M1288.82 373.89L1288.82 373.89" stroke="#132e65" stroke-width="1.5"></path><path d="M1288.82 373.89L1310.51 511.83" stroke="#132e65" stroke-width="1.5"></path><path d="M1288.82 373.89L1439.29 404.06" stroke="#132e65" stroke-width="1.5"></path><path d="M1288.82 373.89L1433.91 499.17" stroke="#132e65" stroke-width="1.5"></path><path d="M1310.51 511.83L1310.51 511.83" stroke="#132e65" stroke-width="1.5"></path><path d="M1310.51 511.83L1433.91 499.17" stroke="#132e65" stroke-width="1.5"></path><path d="M1310.51 511.83L1290.74 642.91" stroke="#132e65" stroke-width="1.5"></path><path d="M1290.74 642.91L1290.74 642.91" stroke="#132e65" stroke-width="1.5"></path><path d="M1290.74 642.91L1430.4 688.04" stroke="#132e65" stroke-width="1.5"></path><path d="M1290.74 642.91L1400.94 787.5" stroke="#132e65" stroke-width="1.5"></path><path d="M1290.74 642.91L1090.92 647.89" stroke="#132e65" stroke-width="1.5"></path><path d="M1301.87 844.15L1301.87 844.15" stroke="#132e65" stroke-width="1.5"></path><path d="M1301.87 844.15L1400.94 787.5" stroke="#132e65" stroke-width="1.5"></path><path d="M1457.43 -70.69L1457.43 -70.69" stroke="#132e65" stroke-width="1.5"></path><path d="M1457.43 -70.69L1545.44 -63.22" stroke="#132e65" stroke-width="1.5"></path><path d="M1457.43 -70.69L1461.7 75.16" stroke="#132e65" stroke-width="1.5"></path><path d="M1457.43 -70.69L1265.48 70.43" stroke="#132e65" stroke-width="1.5"></path><path d="M1457.43 -70.69L1454.24 205.21" stroke="#132e65" stroke-width="1.5"></path><path d="M1457.43 -70.69L1142.61 -74.62" stroke="#132e65" stroke-width="1.5"></path><path d="M1461.7 75.16L1461.7 75.16" stroke="#132e65" stroke-width="1.5"></path><path d="M1461.7 75.16L1454.24 205.21" stroke="#132e65" stroke-width="1.5"></path><path d="M1461.7 75.16L1545.44 -63.22" stroke="#132e65" stroke-width="1.5"></path><path d="M1461.7 75.16L1561.59 236.95" stroke="#132e65" stroke-width="1.5"></path><path d="M1454.24 205.21L1454.24 205.21" stroke="#132e65" stroke-width="1.5"></path><path d="M1454.24 205.21L1561.59 236.95" stroke="#132e65" stroke-width="1.5"></path><path d="M1439.29 404.06L1439.29 404.06" stroke="#132e65" stroke-width="1.5"></path><path d="M1439.29 404.06L1433.91 499.17" stroke="#132e65" stroke-width="1.5"></path><path d="M1439.29 404.06L1603.82 398.67" stroke="#132e65" stroke-width="1.5"></path><path d="M1439.29 404.06L1310.51 511.83" stroke="#132e65" stroke-width="1.5"></path><path d="M1433.91 499.17L1433.91 499.17" stroke="#132e65" stroke-width="1.5"></path><path d="M1430.4 688.04L1430.4 688.04" stroke="#132e65" stroke-width="1.5"></path><path d="M1430.4 688.04L1400.94 787.5" stroke="#132e65" stroke-width="1.5"></path><path d="M1430.4 688.04L1567.52 664.39" stroke="#132e65" stroke-width="1.5"></path><path d="M1430.4 688.04L1433.91 499.17" stroke="#132e65" stroke-width="1.5"></path><path d="M1430.4 688.04L1301.87 844.15" stroke="#132e65" stroke-width="1.5"></path><path d="M1400.94 787.5L1400.94 787.5" stroke="#132e65" stroke-width="1.5"></path><path d="M1400.94 787.5L1555.3 857.91" stroke="#132e65" stroke-width="1.5"></path><path d="M1400.94 787.5L1567.52 664.39" stroke="#132e65" stroke-width="1.5"></path><path d="M1545.44 -63.22L1545.44 -63.22" stroke="#132e65" stroke-width="1.5"></path><path d="M1545.44 -63.22L1454.24 205.21" stroke="#132e65" stroke-width="1.5"></path><path d="M1561.59 236.95L1561.59 236.95" stroke="#132e65" stroke-width="1.5"></path><path d="M1561.59 236.95L1603.82 398.67" stroke="#132e65" stroke-width="1.5"></path><path d="M1561.59 236.95L1439.29 404.06" stroke="#132e65" stroke-width="1.5"></path><path d="M1561.59 236.95L1572.05 525.13" stroke="#132e65" stroke-width="1.5"></path><path d="M1561.59 236.95L1433.91 499.17" stroke="#132e65" stroke-width="1.5"></path><path d="M1603.82 398.67L1603.82 398.67" stroke="#132e65" stroke-width="1.5"></path><path d="M1603.82 398.67L1572.05 525.13" stroke="#132e65" stroke-width="1.5"></path><path d="M1603.82 398.67L1433.91 499.17" stroke="#132e65" stroke-width="1.5"></path><path d="M1603.82 398.67L1454.24 205.21" stroke="#132e65" stroke-width="1.5"></path><path d="M1603.82 398.67L1567.52 664.39" stroke="#132e65" stroke-width="1.5"></path><path d="M1572.05 525.13L1572.05 525.13" stroke="#132e65" stroke-width="1.5"></path><path d="M1572.05 525.13L1567.52 664.39" stroke="#132e65" stroke-width="1.5"></path><path d="M1567.52 664.39L1567.52 664.39" stroke="#132e65" stroke-width="1.5"></path><path d="M1555.3 857.91L1555.3 857.91" stroke="#132e65" stroke-width="1.5"></path><path d="M1555.3 857.91L1567.52 664.39" stroke="#132e65" stroke-width="1.5"></path><path d="M1555.3 857.91L1430.4 688.04" stroke="#132e65" stroke-width="1.5"></path><path d="M1555.3 857.91L1301.87 844.15" stroke="#132e65" stroke-width="1.5"></path><circle r="5" cx="-74.14" cy="514.78" fill="#132e65"></circle><circle r="5" cx="-69.36" cy="664.36" fill="#132e65"></circle><circle r="5" cx="-96.4" cy="844.31" fill="#132e65"></circle><circle r="5" cx="54.44" cy="523.05" fill="#132e65"></circle><circle r="5" cx="79.9" cy="651.38" fill="#132e65"></circle><circle r="5" cx="68.46" cy="805.36" fill="#132e65"></circle><circle r="5" cx="220.72" cy="534.48" fill="#132e65"></circle><circle r="5" cx="202.65" cy="689.39" fill="#132e65"></circle><circle r="5" cx="219.49" cy="787.73" fill="#132e65"></circle><circle r="5" cx="392.2" cy="390.27" fill="#132e65"></circle><circle r="5" cx="358.21" cy="552.65" fill="#132e65"></circle><circle r="5" cx="354.61" cy="671.72" fill="#132e65"></circle><circle r="5" cx="364.82" cy="789.25" fill="#132e65"></circle><circle r="5" cx="518.25" cy="410.1" fill="#132e65"></circle><circle r="5" cx="494.17" cy="543.51" fill="#132e65"></circle><circle r="5" cx="552.02" cy="681.92" fill="#132e65"></circle><circle r="5" cx="537.7" cy="830.75" fill="#132e65"></circle><circle r="5" cx="689.78" cy="347.1" fill="#132e65"></circle><circle r="5" cx="690.1" cy="541.19" fill="#132e65"></circle><circle r="5" cx="654.71" cy="687.01" fill="#132e65"></circle><circle r="5" cx="681.08" cy="841.89" fill="#132e65"></circle><circle r="5" cx="844" cy="223.78" fill="#132e65"></circle><circle r="5" cx="821.8" cy="408.59" fill="#132e65"></circle><circle r="5" cx="790.4" cy="491.91" fill="#132e65"></circle><circle r="5" cx="813.54" cy="711.1" fill="#132e65"></circle><circle r="5" cx="798.05" cy="838.42" fill="#132e65"></circle><circle r="5" cx="976.66" cy="-97.14" fill="#132e65"></circle><circle r="5" cx="963.22" cy="110.93" fill="#132e65"></circle><circle r="5" cx="970.77" cy="191.66" fill="#132e65"></circle><circle r="5" cx="962.33" cy="337.56" fill="#132e65"></circle><circle r="5" cx="941.76" cy="536.44" fill="#132e65"></circle><circle r="5" cx="955.58" cy="655.89" fill="#132e65"></circle><circle r="5" cx="981.68" cy="820.04" fill="#132e65"></circle><circle r="5" cx="1142.61" cy="-74.62" fill="#132e65"></circle><circle r="5" cx="1120.48" cy="59.88" fill="#132e65"></circle><circle r="5" cx="1087.99" cy="389.96" fill="#132e65"></circle><circle r="5" cx="1131.24" cy="521.18" fill="#132e65"></circle><circle r="5" cx="1090.92" cy="647.89" fill="#132e65"></circle><circle r="5" cx="1113.02" cy="793.36" fill="#132e65"></circle><circle r="5" cx="1249.11" cy="-61.97" fill="#132e65"></circle><circle r="5" cx="1265.48" cy="70.43" fill="#132e65"></circle><circle r="5" cx="1245.55" cy="199.63" fill="#132e65"></circle><circle r="5" cx="1288.82" cy="373.89" fill="#132e65"></circle><circle r="5" cx="1310.51" cy="511.83" fill="#132e65"></circle><circle r="5" cx="1290.74" cy="642.91" fill="#132e65"></circle><circle r="5" cx="1301.87" cy="844.15" fill="#132e65"></circle><circle r="5" cx="1457.43" cy="-70.69" fill="#132e65"></circle><circle r="5" cx="1461.7" cy="75.16" fill="#132e65"></circle><circle r="5" cx="1454.24" cy="205.21" fill="#132e65"></circle><circle r="5" cx="1439.29" cy="404.06" fill="#132e65"></circle><circle r="5" cx="1433.91" cy="499.17" fill="#132e65"></circle><circle r="5" cx="1430.4" cy="688.04" fill="#132e65"></circle><circle r="5" cx="1400.94" cy="787.5" fill="#132e65"></circle><circle r="5" cx="1545.44" cy="-63.22" fill="#132e65"></circle><circle r="5" cx="1561.59" cy="236.95" fill="#132e65"></circle><circle r="5" cx="1603.82" cy="398.67" fill="#132e65"></circle><circle r="5" cx="1572.05" cy="525.13" fill="#132e65"></circle><circle r="5" cx="1567.52" cy="664.39" fill="#132e65"></circle><circle r="5" cx="1555.3" cy="857.91" fill="#132e65"></circle><path d="M380.49 641.47L380.49 641.47" stroke="hsl(228.5, 77.2%, 51.5%)" stroke-width="1.5"></path><path d="M380.49 641.47L222 648.52" stroke="hsl(228.5, 77.2%, 51.5%)" stroke-width="1.5"></path><path d="M380.49 641.47L543.78 697.39" stroke="hsl(228.5, 77.2%, 51.5%)" stroke-width="1.5"></path><path d="M380.49 641.47L545.52 522.01" stroke="hsl(228.5, 77.2%, 51.5%)" stroke-width="1.5"></path><path d="M380.49 641.47L554.84 811.23" stroke="hsl(228.5, 77.2%, 51.5%)" stroke-width="1.5"></path><path d="M380.49 641.47L227.94 844.19" stroke="hsl(228.5, 77.2%, 51.5%)" stroke-width="1.5"></path><path d="M380.49 641.47L73.93 639.24" stroke="hsl(228.5, 77.2%, 51.5%)" stroke-width="1.5"></path><path d="M545.52 522.01L545.52 522.01" stroke="hsl(228.5, 77.2%, 51.5%)" stroke-width="1.5"></path><path d="M545.52 522.01L681.34 561.92" stroke="hsl(228.5, 77.2%, 51.5%)" stroke-width="1.5"></path><path d="M545.52 522.01L543.78 697.39" stroke="hsl(228.5, 77.2%, 51.5%)" stroke-width="1.5"></path><path d="M1160.8 375.23L1160.8 375.23" stroke="hsl(228.5, 77.2%, 51.5%)" stroke-width="1.5"></path><path d="M1160.8 375.23L1279.91 345.64" stroke="hsl(228.5, 77.2%, 51.5%)" stroke-width="1.5"></path><path d="M1160.8 375.23L1123.71 244.81" stroke="hsl(228.5, 77.2%, 51.5%)" stroke-width="1.5"></path><path d="M1160.8 375.23L1111.55 510.79" stroke="hsl(228.5, 77.2%, 51.5%)" stroke-width="1.5"></path><path d="M1160.8 375.23L1262.16 496.2" stroke="hsl(228.5, 77.2%, 51.5%)" stroke-width="1.5"></path><path d="M1160.8 375.23L1262.98 237.46" stroke="hsl(228.5, 77.2%, 51.5%)" stroke-width="1.5"></path><path d="M1160.8 375.23L1011.3 538" stroke="hsl(228.5, 77.2%, 51.5%)" stroke-width="1.5"></path><path d="M1111.55 510.79L1111.55 510.79" stroke="hsl(228.5, 77.2%, 51.5%)" stroke-width="1.5"></path><path d="M1111.55 510.79L1011.3 538" stroke="hsl(228.5, 77.2%, 51.5%)" stroke-width="1.5"></path><path d="M1111.55 510.79L1262.16 496.2" stroke="hsl(228.5, 77.2%, 51.5%)" stroke-width="1.5"></path><path d="M1111.55 510.79L1093.43 698.79" stroke="hsl(228.5, 77.2%, 51.5%)" stroke-width="1.5"></path><path d="M1548.48 -65.58L1548.48 -65.58" stroke="hsl(228.5, 77.2%, 51.5%)" stroke-width="1.5"></path><path d="M1548.48 -65.58L1417.74 -98.37" stroke="hsl(228.5, 77.2%, 51.5%)" stroke-width="1.5"></path><path d="M1548.48 -65.58L1560.74 97.48" stroke="hsl(228.5, 77.2%, 51.5%)" stroke-width="1.5"></path><path d="M1548.48 -65.58L1396.41 94.55" stroke="hsl(228.5, 77.2%, 51.5%)" stroke-width="1.5"></path><path d="M1548.48 -65.58L1553.63 197.46" stroke="hsl(228.5, 77.2%, 51.5%)" stroke-width="1.5"></path><path d="M1548.48 -65.58L1262.55 -49.31" stroke="hsl(228.5, 77.2%, 51.5%)" stroke-width="1.5"></path><path d="M-95.68 828.9L-95.68 828.9" stroke="hsl(228.5, 77.2%, 51.5%)" stroke-width="1.5"></path><path d="M-95.68 828.9L37.73 831.06" stroke="hsl(228.5, 77.2%, 51.5%)" stroke-width="1.5"></path><path d="M-95.68 828.9L73.93 639.24" stroke="hsl(228.5, 77.2%, 51.5%)" stroke-width="1.5"></path><path d="M-95.68 828.9L227.94 844.19" stroke="hsl(228.5, 77.2%, 51.5%)" stroke-width="1.5"></path><path d="M73.93 639.24L73.93 639.24" stroke="hsl(228.5, 77.2%, 51.5%)" stroke-width="1.5"></path><path d="M73.93 639.24L222 648.52" stroke="hsl(228.5, 77.2%, 51.5%)" stroke-width="1.5"></path><path d="M73.93 639.24L37.73 831.06" stroke="hsl(228.5, 77.2%, 51.5%)" stroke-width="1.5"></path><path d="M37.73 831.06L37.73 831.06" stroke="hsl(228.5, 77.2%, 51.5%)" stroke-width="1.5"></path><path d="M37.73 831.06L227.94 844.19" stroke="hsl(228.5, 77.2%, 51.5%)" stroke-width="1.5"></path><path d="M222 648.52L222 648.52" stroke="hsl(228.5, 77.2%, 51.5%)" stroke-width="1.5"></path><path d="M222 648.52L227.94 844.19" stroke="hsl(228.5, 77.2%, 51.5%)" stroke-width="1.5"></path><path d="M227.94 844.19L227.94 844.19" stroke="hsl(228.5, 77.2%, 51.5%)" stroke-width="1.5"></path><path d="M227.94 844.19L73.93 639.24" stroke="hsl(228.5, 77.2%, 51.5%)" stroke-width="1.5"></path><path d="M227.94 844.19L554.84 811.23" stroke="hsl(228.5, 77.2%, 51.5%)" stroke-width="1.5"></path><path d="M543.78 697.39L543.78 697.39" stroke="hsl(228.5, 77.2%, 51.5%)" stroke-width="1.5"></path><path d="M543.78 697.39L554.84 811.23" stroke="hsl(228.5, 77.2%, 51.5%)" stroke-width="1.5"></path><path d="M543.78 697.39L696.91 680.95" stroke="hsl(228.5, 77.2%, 51.5%)" stroke-width="1.5"></path><path d="M543.78 697.39L646.9 821.16" stroke="hsl(228.5, 77.2%, 51.5%)" stroke-width="1.5"></path><path d="M554.84 811.23L554.84 811.23" stroke="hsl(228.5, 77.2%, 51.5%)" stroke-width="1.5"></path><path d="M554.84 811.23L646.9 821.16" stroke="hsl(228.5, 77.2%, 51.5%)" stroke-width="1.5"></path><path d="M554.84 811.23L696.91 680.95" stroke="hsl(228.5, 77.2%, 51.5%)" stroke-width="1.5"></path><path d="M554.84 811.23L824.02 834.39" stroke="hsl(228.5, 77.2%, 51.5%)" stroke-width="1.5"></path><path d="M554.84 811.23L681.34 561.92" stroke="hsl(228.5, 77.2%, 51.5%)" stroke-width="1.5"></path><path d="M681.34 561.92L681.34 561.92" stroke="hsl(228.5, 77.2%, 51.5%)" stroke-width="1.5"></path><path d="M681.34 561.92L696.91 680.95" stroke="hsl(228.5, 77.2%, 51.5%)" stroke-width="1.5"></path><path d="M681.34 561.92L848.67 535.34" stroke="hsl(228.5, 77.2%, 51.5%)" stroke-width="1.5"></path><path d="M681.34 561.92L845.26 662.25" stroke="hsl(228.5, 77.2%, 51.5%)" stroke-width="1.5"></path><path d="M696.91 680.95L696.91 680.95" stroke="hsl(228.5, 77.2%, 51.5%)" stroke-width="1.5"></path><path d="M696.91 680.95L646.9 821.16" stroke="hsl(228.5, 77.2%, 51.5%)" stroke-width="1.5"></path><path d="M696.91 680.95L845.26 662.25" stroke="hsl(228.5, 77.2%, 51.5%)" stroke-width="1.5"></path><path d="M646.9 821.16L646.9 821.16" stroke="hsl(228.5, 77.2%, 51.5%)" stroke-width="1.5"></path><path d="M848.67 535.34L848.67 535.34" stroke="hsl(228.5, 77.2%, 51.5%)" stroke-width="1.5"></path><path d="M848.67 535.34L845.26 662.25" stroke="hsl(228.5, 77.2%, 51.5%)" stroke-width="1.5"></path><path d="M848.67 535.34L1011.3 538" stroke="hsl(228.5, 77.2%, 51.5%)" stroke-width="1.5"></path><path d="M848.67 535.34L940.78 349.63" stroke="hsl(228.5, 77.2%, 51.5%)" stroke-width="1.5"></path><path d="M845.26 662.25L845.26 662.25" stroke="hsl(228.5, 77.2%, 51.5%)" stroke-width="1.5"></path><path d="M845.26 662.25L999.37 708.62" stroke="hsl(228.5, 77.2%, 51.5%)" stroke-width="1.5"></path><path d="M845.26 662.25L824.02 834.39" stroke="hsl(228.5, 77.2%, 51.5%)" stroke-width="1.5"></path><path d="M845.26 662.25L1011.3 538" stroke="hsl(228.5, 77.2%, 51.5%)" stroke-width="1.5"></path><path d="M824.02 834.39L824.02 834.39" stroke="hsl(228.5, 77.2%, 51.5%)" stroke-width="1.5"></path><path d="M824.02 834.39L646.9 821.16" stroke="hsl(228.5, 77.2%, 51.5%)" stroke-width="1.5"></path><path d="M824.02 834.39L1003.86 828.47" stroke="hsl(228.5, 77.2%, 51.5%)" stroke-width="1.5"></path><path d="M940.78 349.63L940.78 349.63" stroke="hsl(228.5, 77.2%, 51.5%)" stroke-width="1.5"></path><path d="M940.78 349.63L1011.3 538" stroke="hsl(228.5, 77.2%, 51.5%)" stroke-width="1.5"></path><path d="M940.78 349.63L1123.71 244.81" stroke="hsl(228.5, 77.2%, 51.5%)" stroke-width="1.5"></path><path d="M1011.3 538L1011.3 538" stroke="hsl(228.5, 77.2%, 51.5%)" stroke-width="1.5"></path><path d="M1011.3 538L999.37 708.62" stroke="hsl(228.5, 77.2%, 51.5%)" stroke-width="1.5"></path><path d="M1011.3 538L1093.43 698.79" stroke="hsl(228.5, 77.2%, 51.5%)" stroke-width="1.5"></path><path d="M999.37 708.62L999.37 708.62" stroke="hsl(228.5, 77.2%, 51.5%)" stroke-width="1.5"></path><path d="M999.37 708.62L1093.43 698.79" stroke="hsl(228.5, 77.2%, 51.5%)" stroke-width="1.5"></path><path d="M999.37 708.62L1003.86 828.47" stroke="hsl(228.5, 77.2%, 51.5%)" stroke-width="1.5"></path><path d="M999.37 708.62L1118.75 833.49" stroke="hsl(228.5, 77.2%, 51.5%)" stroke-width="1.5"></path><path d="M999.37 708.62L824.02 834.39" stroke="hsl(228.5, 77.2%, 51.5%)" stroke-width="1.5"></path><path d="M1003.86 828.47L1003.86 828.47" stroke="hsl(228.5, 77.2%, 51.5%)" stroke-width="1.5"></path><path d="M1003.86 828.47L1118.75 833.49" stroke="hsl(228.5, 77.2%, 51.5%)" stroke-width="1.5"></path><path d="M1003.86 828.47L1093.43 698.79" stroke="hsl(228.5, 77.2%, 51.5%)" stroke-width="1.5"></path><path d="M1003.86 828.47L845.26 662.25" stroke="hsl(228.5, 77.2%, 51.5%)" stroke-width="1.5"></path><path d="M1003.86 828.47L1011.3 538" stroke="hsl(228.5, 77.2%, 51.5%)" stroke-width="1.5"></path><path d="M1123.71 244.81L1123.71 244.81" stroke="hsl(228.5, 77.2%, 51.5%)" stroke-width="1.5"></path><path d="M1123.71 244.81L1262.98 237.46" stroke="hsl(228.5, 77.2%, 51.5%)" stroke-width="1.5"></path><path d="M1123.71 244.81L1279.91 345.64" stroke="hsl(228.5, 77.2%, 51.5%)" stroke-width="1.5"></path><path d="M1123.71 244.81L1271.7 48.85" stroke="hsl(228.5, 77.2%, 51.5%)" stroke-width="1.5"></path><path d="M1123.71 244.81L1111.55 510.79" stroke="hsl(228.5, 77.2%, 51.5%)" stroke-width="1.5"></path><path d="M1093.43 698.79L1093.43 698.79" stroke="hsl(228.5, 77.2%, 51.5%)" stroke-width="1.5"></path><path d="M1093.43 698.79L1118.75 833.49" stroke="hsl(228.5, 77.2%, 51.5%)" stroke-width="1.5"></path><path d="M1118.75 833.49L1118.75 833.49" stroke="hsl(228.5, 77.2%, 51.5%)" stroke-width="1.5"></path><path d="M1118.75 833.49L1299.63 828.39" stroke="hsl(228.5, 77.2%, 51.5%)" stroke-width="1.5"></path><path d="M1262.55 -49.31L1262.55 -49.31" stroke="hsl(228.5, 77.2%, 51.5%)" stroke-width="1.5"></path><path d="M1262.55 -49.31L1271.7 48.85" stroke="hsl(228.5, 77.2%, 51.5%)" stroke-width="1.5"></path><path d="M1262.55 -49.31L1417.74 -98.37" stroke="hsl(228.5, 77.2%, 51.5%)" stroke-width="1.5"></path><path d="M1262.55 -49.31L1396.41 94.55" stroke="hsl(228.5, 77.2%, 51.5%)" stroke-width="1.5"></path><path d="M1262.55 -49.31L1262.98 237.46" stroke="hsl(228.5, 77.2%, 51.5%)" stroke-width="1.5"></path><path d="M1262.55 -49.31L1123.71 244.81" stroke="hsl(228.5, 77.2%, 51.5%)" stroke-width="1.5"></path><path d="M1271.7 48.85L1271.7 48.85" stroke="hsl(228.5, 77.2%, 51.5%)" stroke-width="1.5"></path><path d="M1271.7 48.85L1396.41 94.55" stroke="hsl(228.5, 77.2%, 51.5%)" stroke-width="1.5"></path><path d="M1262.98 237.46L1262.98 237.46" stroke="hsl(228.5, 77.2%, 51.5%)" stroke-width="1.5"></path><path d="M1262.98 237.46L1279.91 345.64" stroke="hsl(228.5, 77.2%, 51.5%)" stroke-width="1.5"></path><path d="M1262.98 237.46L1447.44 219.39" stroke="hsl(228.5, 77.2%, 51.5%)" stroke-width="1.5"></path><path d="M1262.98 237.46L1271.7 48.85" stroke="hsl(228.5, 77.2%, 51.5%)" stroke-width="1.5"></path><path d="M1279.91 345.64L1279.91 345.64" stroke="hsl(228.5, 77.2%, 51.5%)" stroke-width="1.5"></path><path d="M1262.16 496.2L1262.16 496.2" stroke="hsl(228.5, 77.2%, 51.5%)" stroke-width="1.5"></path><path d="M1262.16 496.2L1279.91 345.64" stroke="hsl(228.5, 77.2%, 51.5%)" stroke-width="1.5"></path><path d="M1262.16 496.2L1307.78 645.5" stroke="hsl(228.5, 77.2%, 51.5%)" stroke-width="1.5"></path><path d="M1307.78 645.5L1307.78 645.5" stroke="hsl(228.5, 77.2%, 51.5%)" stroke-width="1.5"></path><path d="M1307.78 645.5L1405.82 701.34" stroke="hsl(228.5, 77.2%, 51.5%)" stroke-width="1.5"></path><path d="M1307.78 645.5L1299.63 828.39" stroke="hsl(228.5, 77.2%, 51.5%)" stroke-width="1.5"></path><path d="M1299.63 828.39L1299.63 828.39" stroke="hsl(228.5, 77.2%, 51.5%)" stroke-width="1.5"></path><path d="M1299.63 828.39L1410.41 811.01" stroke="hsl(228.5, 77.2%, 51.5%)" stroke-width="1.5"></path><path d="M1299.63 828.39L1405.82 701.34" stroke="hsl(228.5, 77.2%, 51.5%)" stroke-width="1.5"></path><path d="M1417.74 -98.37L1417.74 -98.37" stroke="hsl(228.5, 77.2%, 51.5%)" stroke-width="1.5"></path><path d="M1417.74 -98.37L1396.41 94.55" stroke="hsl(228.5, 77.2%, 51.5%)" stroke-width="1.5"></path><path d="M1417.74 -98.37L1271.7 48.85" stroke="hsl(228.5, 77.2%, 51.5%)" stroke-width="1.5"></path><path d="M1417.74 -98.37L1560.74 97.48" stroke="hsl(228.5, 77.2%, 51.5%)" stroke-width="1.5"></path><path d="M1417.74 -98.37L1447.44 219.39" stroke="hsl(228.5, 77.2%, 51.5%)" stroke-width="1.5"></path><path d="M1396.41 94.55L1396.41 94.55" stroke="hsl(228.5, 77.2%, 51.5%)" stroke-width="1.5"></path><path d="M1396.41 94.55L1447.44 219.39" stroke="hsl(228.5, 77.2%, 51.5%)" stroke-width="1.5"></path><path d="M1396.41 94.55L1560.74 97.48" stroke="hsl(228.5, 77.2%, 51.5%)" stroke-width="1.5"></path><path d="M1396.41 94.55L1553.63 197.46" stroke="hsl(228.5, 77.2%, 51.5%)" stroke-width="1.5"></path><path d="M1396.41 94.55L1262.98 237.46" stroke="hsl(228.5, 77.2%, 51.5%)" stroke-width="1.5"></path><path d="M1447.44 219.39L1447.44 219.39" stroke="hsl(228.5, 77.2%, 51.5%)" stroke-width="1.5"></path><path d="M1447.44 219.39L1553.63 197.46" stroke="hsl(228.5, 77.2%, 51.5%)" stroke-width="1.5"></path><path d="M1447.44 219.39L1454.89 382.96" stroke="hsl(228.5, 77.2%, 51.5%)" stroke-width="1.5"></path><path d="M1454.89 382.96L1454.89 382.96" stroke="hsl(228.5, 77.2%, 51.5%)" stroke-width="1.5"></path><path d="M1454.89 382.96L1540.99 409.07" stroke="hsl(228.5, 77.2%, 51.5%)" stroke-width="1.5"></path><path d="M1454.89 382.96L1279.91 345.64" stroke="hsl(228.5, 77.2%, 51.5%)" stroke-width="1.5"></path><path d="M1454.89 382.96L1579.13 538.06" stroke="hsl(228.5, 77.2%, 51.5%)" stroke-width="1.5"></path><path d="M1454.89 382.96L1553.63 197.46" stroke="hsl(228.5, 77.2%, 51.5%)" stroke-width="1.5"></path><path d="M1405.82 701.34L1405.82 701.34" stroke="hsl(228.5, 77.2%, 51.5%)" stroke-width="1.5"></path><path d="M1405.82 701.34L1410.41 811.01" stroke="hsl(228.5, 77.2%, 51.5%)" stroke-width="1.5"></path><path d="M1410.41 811.01L1410.41 811.01" stroke="hsl(228.5, 77.2%, 51.5%)" stroke-width="1.5"></path><path d="M1410.41 811.01L1553.39 812.46" stroke="hsl(228.5, 77.2%, 51.5%)" stroke-width="1.5"></path><path d="M1410.41 811.01L1307.78 645.5" stroke="hsl(228.5, 77.2%, 51.5%)" stroke-width="1.5"></path><path d="M1560.74 97.48L1560.74 97.48" stroke="hsl(228.5, 77.2%, 51.5%)" stroke-width="1.5"></path><path d="M1560.74 97.48L1553.63 197.46" stroke="hsl(228.5, 77.2%, 51.5%)" stroke-width="1.5"></path><path d="M1560.74 97.48L1447.44 219.39" stroke="hsl(228.5, 77.2%, 51.5%)" stroke-width="1.5"></path><path d="M1553.63 197.46L1553.63 197.46" stroke="hsl(228.5, 77.2%, 51.5%)" stroke-width="1.5"></path><path d="M1553.63 197.46L1540.99 409.07" stroke="hsl(228.5, 77.2%, 51.5%)" stroke-width="1.5"></path><path d="M1540.99 409.07L1540.99 409.07" stroke="hsl(228.5, 77.2%, 51.5%)" stroke-width="1.5"></path><path d="M1540.99 409.07L1579.13 538.06" stroke="hsl(228.5, 77.2%, 51.5%)" stroke-width="1.5"></path><path d="M1579.13 538.06L1579.13 538.06" stroke="hsl(228.5, 77.2%, 51.5%)" stroke-width="1.5"></path><path d="M1579.13 538.06L1405.82 701.34" stroke="hsl(228.5, 77.2%, 51.5%)" stroke-width="1.5"></path><path d="M1579.13 538.06L1553.39 812.46" stroke="hsl(228.5, 77.2%, 51.5%)" stroke-width="1.5"></path><path d="M1579.13 538.06L1307.78 645.5" stroke="hsl(228.5, 77.2%, 51.5%)" stroke-width="1.5"></path><path d="M1579.13 538.06L1262.16 496.2" stroke="hsl(228.5, 77.2%, 51.5%)" stroke-width="1.5"></path><path d="M1553.39 812.46L1553.39 812.46" stroke="hsl(228.5, 77.2%, 51.5%)" stroke-width="1.5"></path><path d="M1553.39 812.46L1405.82 701.34" stroke="hsl(228.5, 77.2%, 51.5%)" stroke-width="1.5"></path><path d="M1553.39 812.46L1299.63 828.39" stroke="hsl(228.5, 77.2%, 51.5%)" stroke-width="1.5"></path><circle r="25" cx="380.49" cy="641.47" fill="url(#SvgjsRadialGradient1219)"></circle><circle r="25" cx="545.52" cy="522.01" fill="url(#SvgjsRadialGradient1219)"></circle><circle r="25" cx="1160.8" cy="375.23" fill="url(#SvgjsRadialGradient1219)"></circle><circle r="25" cx="1111.55" cy="510.79" fill="url(#SvgjsRadialGradient1219)"></circle><circle r="25" cx="1548.48" cy="-65.58" fill="url(#SvgjsRadialGradient1219)"></circle><circle r="5" cx="-95.68" cy="828.9" fill="#8b9ad9"></circle><circle r="5" cx="73.93" cy="639.24" fill="#8b9ad9"></circle><circle r="5" cx="37.73" cy="831.06" fill="#8b9ad9"></circle><circle r="5" cx="222" cy="648.52" fill="#8b9ad9"></circle><circle r="5" cx="227.94" cy="844.19" fill="#8b9ad9"></circle><circle r="5" cx="543.78" cy="697.39" fill="#8b9ad9"></circle><circle r="5" cx="554.84" cy="811.23" fill="#8b9ad9"></circle><circle r="5" cx="681.34" cy="561.92" fill="#8b9ad9"></circle><circle r="5" cx="696.91" cy="680.95" fill="#8b9ad9"></circle><circle r="5" cx="646.9" cy="821.16" fill="#8b9ad9"></circle><circle r="5" cx="848.67" cy="535.34" fill="#8b9ad9"></circle><circle r="5" cx="845.26" cy="662.25" fill="#8b9ad9"></circle><circle r="5" cx="824.02" cy="834.39" fill="#8b9ad9"></circle><circle r="5" cx="940.78" cy="349.63" fill="#8b9ad9"></circle><circle r="5" cx="1011.3" cy="538" fill="#8b9ad9"></circle><circle r="5" cx="999.37" cy="708.62" fill="#8b9ad9"></circle><circle r="5" cx="1003.86" cy="828.47" fill="#8b9ad9"></circle><circle r="5" cx="1123.71" cy="244.81" fill="#8b9ad9"></circle><circle r="5" cx="1093.43" cy="698.79" fill="#8b9ad9"></circle><circle r="5" cx="1118.75" cy="833.49" fill="#8b9ad9"></circle><circle r="5" cx="1262.55" cy="-49.31" fill="#8b9ad9"></circle><circle r="5" cx="1271.7" cy="48.85" fill="#8b9ad9"></circle><circle r="5" cx="1262.98" cy="237.46" fill="#8b9ad9"></circle><circle r="5" cx="1279.91" cy="345.64" fill="#8b9ad9"></circle><circle r="5" cx="1262.16" cy="496.2" fill="#8b9ad9"></circle><circle r="5" cx="1307.78" cy="645.5" fill="#8b9ad9"></circle><circle r="5" cx="1299.63" cy="828.39" fill="#8b9ad9"></circle><circle r="5" cx="1417.74" cy="-98.37" fill="#8b9ad9"></circle><circle r="5" cx="1396.41" cy="94.55" fill="#8b9ad9"></circle><circle r="5" cx="1447.44" cy="219.39" fill="#8b9ad9"></circle><circle r="5" cx="1454.89" cy="382.96" fill="#8b9ad9"></circle><circle r="5" cx="1405.82" cy="701.34" fill="#8b9ad9"></circle><circle r="5" cx="1410.41" cy="811.01" fill="#8b9ad9"></circle><circle r="5" cx="1560.74" cy="97.48" fill="#8b9ad9"></circle><circle r="5" cx="1553.63" cy="197.46" fill="#8b9ad9"></circle><circle r="5" cx="1540.99" cy="409.07" fill="#8b9ad9"></circle><circle r="5" cx="1579.13" cy="538.06" fill="#8b9ad9"></circle><circle r="5" cx="1553.39" cy="812.46" fill="#8b9ad9"></circle></g><defs><mask id="SvgjsMask1218"><rect width="1440" height="700" fill="#ffffff"></rect></mask><radialGradient id="SvgjsRadialGradient1219"><stop stop-color="#ffffff" offset="0.1"></stop><stop stop-color="#1735b3" offset="0.2"></stop><stop stop-color="rgba(23, 53, 179, 0)" offset="1"></stop></radialGradient></defs></svg>